<svg xmlns="http://www.w3.org/2000/svg" viewBox="0 0 110 100"><g id="Layer_2" data-name="Layer 2"><g id="Layer_1-2" data-name="Layer 1"><path d="M51.74.06C30.72,1.2,12.27,13.15,4.15,30.88A46.11,46.11,0,0,0,1.58,62C6,78.18,19,91.37,36.34,97.08A59.71,59.71,0,0,0,51,99.91c1.48.12,6.67.12,8.15,0A59.21,59.21,0,0,0,73.92,97a51.44,51.44,0,0,0,5.7-2.25A53.73,53.73,0,0,0,95.07,84.3a48.74,48.74,0,0,0,13.67-23.37A43.25,43.25,0,0,0,110,50a36.77,36.77,0,0,0-.34-5.91,47,47,0,0,0-9-22A55.64,55.64,0,0,0,65.83,1,58.05,58.05,0,0,0,58.09.06C56.68,0,53.22,0,51.74.06Zm7.92,5.46a52.06,52.06,0,0,1,7.52,1.2A49.32,49.32,0,0,1,76.93,10,48.43,48.43,0,0,1,94.41,23.28c.56.68,1.81,2.33,1.81,2.41a1.1,1.1,0,0,1-.47.07l-.46,0-1.56,3.33c-3.5,7.48-4.65,9.92-4.69,10s-1.38-2.95-3-6.62l-3-6.68-1.36,0a6.36,6.36,0,0,0-1.36,0s5.22,12.11,6.95,16.05l.13.31-1.14,2.64-1.14,2.62h1.38l1.38,0L90,42.91l4.65-10.07c1.42-3.08,2.59-5.6,2.61-5.6A20.58,20.58,0,0,1,99,30a40.92,40.92,0,0,1,5.1,17.29,57.63,57.63,0,0,1-.11,6.84A41.57,41.57,0,0,1,99,69.93,47.22,47.22,0,0,1,76.93,90a52.5,52.5,0,0,1-17.34,4.5c-1.65.15-5.81.21-7.53.11A52.38,52.38,0,0,1,32.9,89.9,47.66,47.66,0,0,1,12.65,72.64a54.08,54.08,0,0,1-3.22-5.92A41.27,41.27,0,0,1,6.22,55.21,35.64,35.64,0,0,1,5.91,50a35.82,35.82,0,0,1,.31-5.2A42.39,42.39,0,0,1,16.65,22.1,48.08,48.08,0,0,1,29.7,11.72,52.37,52.37,0,0,1,51.59,5.43C53,5.33,58.23,5.39,59.66,5.52Z"/><path d="M49.68,25.77a9.48,9.48,0,0,0-5.79,3.08,8.4,8.4,0,0,0,.33,11.84,9.55,9.55,0,0,0,6.58,2.77,9.34,9.34,0,0,0,6.83-2.37l.68-.61v2.6h2.47V38.23c0-5.17,0-5.37-.38-6.47a9.56,9.56,0,0,0-4.89-5.14,10.8,10.8,0,0,0-2.44-.77A14.9,14.9,0,0,0,49.68,25.77ZM52.52,28a7.11,7.11,0,0,1,5.09,3.67,6.36,6.36,0,0,1-.82,7,7,7,0,0,1-5.53,2.59,6.77,6.77,0,0,1-5.09-2.05,6.22,6.22,0,0,1-.5-8.77A7.55,7.55,0,0,1,52.52,28Z"/><path d="M18.26,25.84a7,7,0,0,0-5.77,4.6c-.35,1.08-.37,1.45-.37,7.21v5.43h2.61V37.59c0-5.81,0-6,.37-6.91a4.58,4.58,0,0,1,2.11-2.34,5.41,5.41,0,0,1,4.8.33,5.21,5.21,0,0,1,1.69,1.64c.47.87.45.63.45,7v5.8h2.69V37.42c0-6.28,0-6.19.49-7.1a5,5,0,0,1,2.57-2.06,5.77,5.77,0,0,1,3.31-.13,4.61,4.61,0,0,1,2.95,3c.12.37.13.85.15,6.17l0,5.76H39V37.55c0-6,0-6.22-.41-7.3a6,6,0,0,0-1.64-2.46A7.36,7.36,0,0,0,33.44,26a10,10,0,0,0-3.38-.13,6.86,6.86,0,0,0-4.12,2.5l-.43.53-.36-.46a7.23,7.23,0,0,0-3.7-2.47A10.93,10.93,0,0,0,18.26,25.84Z"/><path d="M70,25.85a7.83,7.83,0,0,0-6.34,5.49c-.25.9-.3,2.06-.3,7v4.75h2.53l0-5.43,0-5.41.18-.48a5.73,5.73,0,0,1,3.14-3.29A5.49,5.49,0,0,1,71.67,28a5.64,5.64,0,0,1,4.26,1.72,5,5,0,0,1,1.28,1.92l.2.54,0,5.45,0,5.46H80l0-5.49c0-5.29,0-5.51-.18-6.07a7.62,7.62,0,0,0-4.55-5.13,7.75,7.75,0,0,0-3.32-.62A11.16,11.16,0,0,0,70,25.85Z"/><path d="M53.83,47.12v1.94h2.39V45.19H53.83Z"/><path d="M77.48,45.27c0,.06,0,3.38,0,7.4,0,8.17,0,7.76.57,8.86a4,4,0,0,0,2.14,1.94,9.64,9.64,0,0,0,3.49.68h.43V62.33l-.72-.07c-1.84-.19-2.77-.83-3.28-2.26-.12-.33-.14-.7-.17-3.48l0-3.11H84.1V51.3H79.92V45.19h-1.2C77.79,45.19,77.51,45.21,77.48,45.27Z"/><path d="M20.15,47a9.8,9.8,0,0,0-3.83,1.36,11.79,11.79,0,0,0-2.39,2.14,8.66,8.66,0,0,0-1.36,2.39c-.45,1.24-.45,1.39-.45,8.57V68h2.39V61.34l.62.55a9.81,9.81,0,0,0,8.67,2,9.64,9.64,0,0,0,5.88-4.41,7.33,7.33,0,0,0,1-4,7.58,7.58,0,0,0-1.86-5.2A9.6,9.6,0,0,0,20.15,47Zm2.92,2.3a6.53,6.53,0,0,1,3.22,1.8,6.2,6.2,0,0,1,1.57,2.33,5.33,5.33,0,0,1,.38,2.46A6,6,0,0,1,27,59.35a7.66,7.66,0,0,1-2.85,2.15,6.4,6.4,0,0,1-2.8.5,5.78,5.78,0,0,1-3-.61,4.52,4.52,0,0,1-1.51-1,6.2,6.2,0,0,1-1.65-2,4.91,4.91,0,0,1-.63-2.85,4.28,4.28,0,0,1,.2-1.78,7.12,7.12,0,0,1,4.43-4.37A8.36,8.36,0,0,1,23.07,49.33Z"/><path d="M41.31,47a9.27,9.27,0,0,0-7.85,6.73,11,11,0,0,0-.08,3.3,8.09,8.09,0,0,0,2.69,4.71,9,9,0,0,0,6.47,2.41,9.31,9.31,0,0,0,2.88-.38,9.57,9.57,0,0,0,5.91-5.35,8.05,8.05,0,0,0-.79-7.25A9.46,9.46,0,0,0,44,47.05,16.45,16.45,0,0,0,41.31,47Zm3.16,2.33a6.4,6.4,0,0,1,3,1.72,6.18,6.18,0,0,1,1.4,7.11,7.42,7.42,0,0,1-3.74,3.43,5.9,5.9,0,0,1-2.48.41,6.55,6.55,0,0,1-4.8-1.79,6.15,6.15,0,0,1-1.89-6.39,6.81,6.81,0,0,1,5.16-4.58A10.63,10.63,0,0,1,44.47,49.33Z"/><path d="M66.34,47a8.3,8.3,0,0,0-2.53.67,7.38,7.38,0,0,0-4.25,4.89c-.15.56-.15.78-.18,5.9l0,5.32h2.47l0-5.32,0-5.32.2-.54a5,5,0,0,1,1.28-1.86,5.79,5.79,0,0,1,5.07-1.55,5.38,5.38,0,0,1,2.9,1.47,4.75,4.75,0,0,1,1.41,2l.2.54,0,5.28,0,5.29h2.46V59.1c0-2.69,0-5-.07-5.45a7.06,7.06,0,0,0-1.57-3.83A8.29,8.29,0,0,0,66.34,47Z"/><path d="M91.13,47.06a6,6,0,0,0-1.19.41,4.17,4.17,0,0,0-1.39.94,3.73,3.73,0,0,0-1.43,3.33,3.81,3.81,0,0,0,1.32,2.9c.73.66,1.21.88,3.2,1.46.85.25,1.73.54,2,.64A3.09,3.09,0,0,1,95,58a1.91,1.91,0,0,1,.27,1.08c.09,1.87-1.24,3-3.35,2.94a2.87,2.87,0,0,1-2.07-1A2.26,2.26,0,0,1,89,59.4l0-.48H86.4l0,.5a5.41,5.41,0,0,0,3.11,4.25,4.77,4.77,0,0,0,2.62.51A4.33,4.33,0,0,0,93.94,64,5.85,5.85,0,0,0,97.7,60.6a4.67,4.67,0,0,0-1.24-4.78c-.78-.71-1.42-1-3.61-1.7a5.82,5.82,0,0,1-2.5-1.1,1.75,1.75,0,0,1-.68-1.55,1.68,1.68,0,0,1,.2-1,2.6,2.6,0,0,1,1.26-1.14,2.27,2.27,0,0,1,1.12-.18,2.3,2.3,0,0,1,1.15.19c.95.4,1.39.95,1.39,1.69v.4h2.55V51c0-1.7-1.73-3.48-3.82-3.93A7.67,7.67,0,0,0,91.13,47.06Z"/><path d="M53.83,57.59v6.22h2.39V51.37H53.83Z"/><path d="M19.32,67.51c-.09.21,0,.31.38.31H20V71c0,2.91,0,3.22.15,3.28a.2.2,0,0,0,.24,0c.11-.08.12-.45.12-3.27V67.83l.36,0c.32,0,.35,0,.35-.19v-.17l-.95,0C19.52,67.41,19.36,67.42,19.32,67.51Z"/><path d="M22.44,67.56c-.54.33-.53.28-.53,3.62,0,3,0,3.16.23,3.16a.35.35,0,0,0,.17-.1c.11-.09.12-.41.12-2.45V69.45H23.7l0,2.39c0,2.22,0,2.4.15,2.46s.16,0,.25,0,.11-.62.11-3c0-3.18,0-3.17-.45-3.54a.88.88,0,0,0-.65-.24A.91.91,0,0,0,22.44,67.56Zm1.08.5c.15.13.18.23.18.54V69H22.43v-.36c0-.49.2-.72.61-.72A.61.61,0,0,1,23.52,68.06Z"/><path d="M25.62,67.45s-.05,1.56-.05,3.39c0,3,0,3.36.12,3.44a.2.2,0,0,0,.24,0c.11-.06.14-.36.16-2.87l0-2.81.2.38c.18.31.24.38.4.38s.22-.07.4-.39l.23-.39v2.79c0,2.47,0,2.81.12,2.89a.18.18,0,0,0,.23,0c.12-.06.13-.37.13-3.46V67.45l-.19,0c-.17,0-.23,0-.56.62s-.38.59-.42.52-.21-.33-.38-.61C26,67.47,25.78,67.31,25.62,67.45Z"/><path d="M31.38,67.46s-.05,1.55-.05,3.38c0,3,0,3.36.12,3.44a.2.2,0,0,0,.24,0c.11-.06.12-.32.15-2.46V69.45h1.27l0,2.39c0,2.14,0,2.4.15,2.46a.2.2,0,0,0,.24,0c.1-.08.12-.46.12-3.37,0-1.81,0-3.33,0-3.39a.24.24,0,0,0-.22-.11c-.23,0-.26.1-.26.89V69H31.85v-.7a1.74,1.74,0,0,0-.09-.78A.32.32,0,0,0,31.38,67.46Z"/><path d="M35.07,67.54a.42.42,0,0,0,0,.31c0,.15.09.17.24.16s.2-.05.2-.29,0-.28-.17-.3A.24.24,0,0,0,35.07,67.54Z"/><path d="M36.49,67.53c-.15.26,0,.32.82.3a6.75,6.75,0,0,1,.82,0s0,.19,0,.36-.45,1.58-.88,3.12a16.82,16.82,0,0,0-.71,2.9c.06.1.21.11,1,.11a5.22,5.22,0,0,0,1.09-.06c.06,0,.09-.13.07-.21s0-.17-.85-.19l-.84,0,.87-3.12c.47-1.71.84-3.17.82-3.22s-.21-.11-1.1-.11S36.56,67.42,36.49,67.53Z"/><path d="M39.45,67.45S39.4,69,39.4,70.84c0,3,0,3.36.12,3.44a.2.2,0,0,0,.24,0c.11-.06.13-.36.16-2.87l0-2.81.2.38c.29.52.47.52.77,0l.23-.37,0,2.8c0,2.51,0,2.81.16,2.87a.2.2,0,0,0,.24,0c.1-.08.12-.46.12-3.4s0-3.33-.12-3.41-.31,0-.66.56a1.83,1.83,0,0,1-.38.52,1.75,1.75,0,0,1-.41-.55C39.83,67.47,39.62,67.31,39.45,67.45Z"/><path d="M43.66,67.56a2.33,2.33,0,0,0-.4.35c-.16.19-.16.26-.16,3v2.77l.2.24a1.22,1.22,0,0,0,1.63.21c.44-.33.45-.39.45-2.29,0-1.58,0-1.74-.13-1.79-.27-.13-.32,0-.32.72,0,.41,0,1.21,0,1.79,0,1-.06,1-.22,1.19a.61.61,0,0,1-.86,0l-.21-.2v-4h.8a2.52,2.52,0,0,0,.9-.08,1.35,1.35,0,0,0,.09-.63,1.3,1.3,0,0,0-.17-.81A1.17,1.17,0,0,0,43.66,67.56Zm1,.5c.14.12.17.23.19.51v.37l-.65,0-.66,0v-.35c0-.42.09-.59.39-.71A.62.62,0,0,1,44.7,68.06Z"/><path d="M46.08,67.51c-.09.21,0,.31.39.31h.33l0,3.2c0,2.91,0,3.22.15,3.28a.2.2,0,0,0,.24,0c.1-.08.12-.45.12-3.27V67.83l.35,0c.33,0,.36,0,.36-.19v-.17l-1,0C46.28,67.41,46.12,67.42,46.08,67.51Z"/><path d="M50.82,67.46c-.09.11-.07,6.76,0,6.83a.28.28,0,0,0,.24,0c.15,0,.15-.06.15-2.46V69.43l.38,0a.89.89,0,0,1,.62.26l.24.21,0,2.15c0,1.9.06,2.16.17,2.22a.2.2,0,0,0,.24,0c.11-.09.12-.32.1-2.21,0-2.23,0-2.31-.4-2.65-.11-.1-.1-.13.1-.34a.91.91,0,0,0-.12-1.43c-.24-.19-.28-.2-1-.23A2.44,2.44,0,0,0,50.82,67.46Zm1.5.6a.48.48,0,0,1,0,.74c-.15.15-.26.17-.64.17h-.45v-.53a1.8,1.8,0,0,1,.06-.58,1.23,1.23,0,0,1,.47,0A.85.85,0,0,1,52.32,68.06Z"/><path d="M54.8,67.56a2.33,2.33,0,0,0-.4.35c-.15.19-.16.28-.18,2.78a20,20,0,0,0,.06,2.85,1.16,1.16,0,0,0,1.8.55c.42-.32.44-.45.44-2.32,0-1.61,0-1.71-.14-1.78a.21.21,0,0,0-.26,0c-.11.09-.12.36-.12,1.81v1.7l-.19.16a.63.63,0,0,1-.73.09c-.35-.17-.35-.19-.35-2.32v-2h.75c1,0,1,0,1-.67a1.47,1.47,0,0,0-.17-.83A1.16,1.16,0,0,0,54.8,67.56Zm1,.48c.14.12.17.21.17.54V69H54.73v-.36c0-.5.19-.72.62-.72A.66.66,0,0,1,55.83,68Z"/><path d="M57.83,67.49c0,.05,0,1.59,0,3.41,0,3.12,0,3.33.15,3.4s.16,0,.25,0a9.71,9.71,0,0,0,.1-2.53,20.65,20.65,0,0,1,.07-2.44c.08,0,.06-.13.74,2.81.52,2.23.61,2.43.88,2.19.09-.1,0-.38-.49-2.68-.33-1.42-.6-2.63-.6-2.69a2.48,2.48,0,0,1,.53-.65c.54-.54.59-.64.41-.78s-.25,0-.94.63l-.6.59v-.51a2.23,2.23,0,0,0-.07-.65C58.15,67.4,57.88,67.36,57.83,67.49Z"/><path d="M60.83,67.52c0,.06,0,1.58,0,3.38a20,20,0,0,0,.09,3.36,4.78,4.78,0,0,0,1.69,0c.06,0,.09-.13.08-.21s-.06-.17-.68-.19l-.66,0V70.72a18.63,18.63,0,0,0-.09-3.23C61.09,67.38,60.88,67.39,60.83,67.52Z"/><path d="M63.55,67.56a2.42,2.42,0,0,0-.41.35c-.15.19-.15.26-.15,3.25,0,2.79,0,3.08.12,3.14a.2.2,0,0,0,.24,0c.11-.08.12-.38.12-2.46V69.45h1.27l0,2.39c0,2.14,0,2.4.15,2.46a.2.2,0,0,0,.24,0c.1-.08.12-.43.12-3.06,0-3,0-3-.18-3.27A1.14,1.14,0,0,0,63.55,67.56Zm1,.48c.14.12.17.21.17.54V69H63.47v-.36c0-.5.2-.72.62-.72A.66.66,0,0,1,64.57,68Z"/><path d="M66.7,67.49a20.45,20.45,0,0,0-.09,3.39c0,2.94,0,3.32.12,3.4a.2.2,0,0,0,.24,0c.11-.06.14-.36.17-2.89l0-2.81.23.37c.31.53.49.54.76,0a1.16,1.16,0,0,1,.26-.39,25.64,25.64,0,0,1,0,2.74c0,2.32,0,2.76.06,2.87a.26.26,0,0,0,.27.08l.16,0,0-3.41,0-3.41h-.18c-.16,0-.24.08-.49.52a4.4,4.4,0,0,1-.39.6c-.06.06-.18-.09-.44-.54C67,67.42,66.9,67.31,66.7,67.49Z"/><path d="M72.88,67.57a1.28,1.28,0,0,0-.41.45c-.18.3-.18.33-.18,3.2,0,3.1,0,3.19.36,3.1l.17,0V69.45h1.34v2.41a15.81,15.81,0,0,0,.08,2.45.4.4,0,0,0,.22,0c.15,0,.15-.11.15-3.11s0-3.08-.15-3.3A1.21,1.21,0,0,0,72.88,67.57Zm1.06.49a.73.73,0,0,1,.21.54l0,.37H72.82v-.3a.89.89,0,0,1,.31-.74A.85.85,0,0,1,73.94,68.06Z"/><path d="M77.58,67.46s0,1.39,0,3v3l-.23.21a.51.51,0,0,1-.51.17c-.52-.08-.53-.12-.53-2,0-1.58,0-1.69-.15-1.8s-.17-.1-.27,0-.11.36-.11,1.84c0,1.7,0,1.75.17,2a1.16,1.16,0,0,0,2-.07c.16-.3.16-.32.16-3.23a16.41,16.41,0,0,0-.09-3A.32.32,0,0,0,77.58,67.46Z"/><path d="M79.92,67.54a1.33,1.33,0,0,0-.43.39c-.17.26-.17.28-.17,3.26,0,2.66,0,3,.12,3.09a.2.2,0,0,0,.24,0c.11-.06.13-.32.15-2.46V69.45h1.27l0,2.39c0,2.14,0,2.4.15,2.46a.2.2,0,0,0,.24,0c.1-.08.12-.43.12-3.06,0-3,0-3-.17-3.27A1.19,1.19,0,0,0,79.92,67.54Zm1,.52c.15.13.18.23.18.54V69H79.84V68.6c0-.31,0-.41.19-.54A.67.67,0,0,1,80.93,68.06Z"/><path d="M83.07,67.49A22.08,22.08,0,0,0,83,70.88c0,2.94,0,3.32.12,3.4a.2.2,0,0,0,.24,0c.11-.06.13-.37.17-3.08l0-3,.62.61.62.61v2.35c0,2.06,0,2.38.12,2.47a.35.35,0,0,0,.17.1c.22,0,.23-.2.23-3.51,0-3,0-3.36-.12-3.4-.27-.09-.36.07-.4.69l0,.61-.67-.66C83.42,67.42,83.25,67.33,83.07,67.49Z"/><path d="M87.24,67.54c-.41.2-.59.55-.59,1.2a1.22,1.22,0,0,0,.09.63,2.48,2.48,0,0,0,.89.08h.81v4.09l-.19.16a.69.69,0,0,1-.86,0l-.18-.13,0-1.95,0-2h-.45v2c0,1.89,0,2,.16,2.18a1.46,1.46,0,0,0,1.16.46,1.27,1.27,0,0,0,.91-.78c0-.12,0-1.16,0-2.32,0-2,0-2.1-.14-2.17a4.46,4.46,0,0,0-.9-.07h-.75V68.6c0-.47.22-.71.62-.71a.58.58,0,0,1,.64.54c.06.33.23.48.41.35s0-1-.47-1.24A1.39,1.39,0,0,0,87.24,67.54Z"/><path d="M90.32,67.49a21.58,21.58,0,0,0-.09,3.35c0,2.74,0,3.29.11,3.41s.13.11.25,0,.13-.28.15-3.33c0-1.78,0-3.32,0-3.41S90.47,67.36,90.32,67.49Z"/><path d="M35.12,68.48s0,1.34,0,2.91v2.88l.16,0c.34.09.36,0,.36-2.94,0-1.5,0-2.78-.05-2.84S35.21,68.39,35.12,68.48Z"/></g></g></svg>