<?xml version="1.0" encoding="utf-8"?>
<!-- Generator: Adobe Illustrator 24.3.0, SVG Export Plug-In . SVG Version: 6.00 Build 0)  -->
<svg version="1.1" id="Layer_1" xmlns="http://www.w3.org/2000/svg" xmlns:xlink="http://www.w3.org/1999/xlink" x="0px" y="0px"
	 viewBox="0 0 110 100" style="enable-background:new 0 0 110 100;" xml:space="preserve">
<style type="text/css">
	.st0{fill:#F9F4F4;}
</style>
<g id="Layer_2_1_">
	<g id="Layer_1-2">
		<path class="st0" d="M51.7,0.1c-21,1.1-39.5,13.1-47.6,30.8C-0.3,40.6-1.2,51.6,1.6,62C6,78.2,19,91.4,36.3,97.1
			c4.7,1.6,9.7,2.5,14.7,2.8c1.5,0.1,6.7,0.1,8.2,0c5-0.3,10-1.3,14.8-2.9c1.9-0.6,3.8-1.4,5.7-2.2c5.7-2.6,10.9-6.1,15.5-10.4
			c6.7-6.3,11.4-14.4,13.7-23.4c0.9-3.6,1.3-7.2,1.3-10.9c0-2-0.1-4-0.3-5.9c-1.1-8-4.2-15.6-9-22C92.1,10.9,79.7,3.4,65.8,1
			c-2.6-0.5-5.1-0.8-7.7-0.9C56.7,0,53.2,0,51.7,0.1z M59.7,5.5c2.5,0.2,5,0.6,7.5,1.2c3.4,0.8,6.6,1.8,9.8,3.3
			c6.8,3,12.7,7.6,17.5,13.3c0.6,0.7,1.8,2.3,1.8,2.4c-0.1,0.1-0.3,0.1-0.5,0.1h-0.5l-1.6,3.3c-3.5,7.5-4.7,9.9-4.7,10s-1.4-3-3-6.6
			l-3-6.7h-1.4c-0.5,0-0.9,0-1.4,0c0,0,5.2,12.1,6.9,16l0.1,0.3l-1.1,2.6l-1.1,2.6h1.4h1.4l2.1-4.5l4.7-10.1
			c1.4-3.1,2.6-5.6,2.6-5.6c0.7,0.9,1.2,1.8,1.7,2.8c3,5.3,4.7,11.2,5.1,17.3c0.1,2.3,0.1,4.6-0.1,6.8c-0.6,5.5-2.3,10.9-5,15.8
			C94,78.8,86.3,85.9,76.9,90c-5.5,2.5-11.3,4-17.3,4.5c-1.7,0.2-5.8,0.2-7.5,0.1c-6.6-0.3-13.1-1.9-19.2-4.7
			c-8.3-3.7-15.3-9.7-20.3-17.3c-1.2-1.9-2.3-3.9-3.2-5.9c-1.6-3.7-2.7-7.5-3.2-11.5C6,53.5,5.9,51.7,5.9,50c0-1.7,0.1-3.5,0.3-5.2
			c1.1-8.4,4.8-16.4,10.4-22.7c3.7-4.2,8.1-7.7,13.1-10.4C36.4,8,43.9,5.9,51.6,5.4C53,5.3,58.2,5.4,59.7,5.5z"/>
		<path class="st0" d="M49.7,25.8c-2.2,0.3-4.3,1.4-5.8,3.1c-3.2,3.4-3,8.7,0.3,11.8c1.8,1.7,4.1,2.7,6.6,2.8c2.5,0.2,5-0.7,6.8-2.4
			l0.7-0.6v2.6h2.5v-4.9c0-5.2,0-5.4-0.4-6.5c-0.9-2.3-2.7-4.1-4.9-5.1c-0.8-0.4-1.6-0.6-2.4-0.8C51.9,25.7,50.8,25.7,49.7,25.8z
			 M52.5,28c2.2,0.4,4.1,1.7,5.1,3.7c1.2,2.3,0.8,5-0.8,7c-1.3,1.7-3.4,2.6-5.5,2.6c-1.9,0.1-3.8-0.7-5.1-2
			c-2.6-2.3-2.8-6.2-0.5-8.8C47.4,28.5,50,27.6,52.5,28z"/>
		<path class="st0" d="M18.3,25.8c-2.6,0.3-4.9,2.1-5.8,4.6c-0.4,1.1-0.4,1.5-0.4,7.2v5.4h2.6v-5.5c0-5.8,0-6,0.4-6.9
			c0.4-1,1.2-1.8,2.1-2.3c1.6-0.6,3.3-0.5,4.8,0.3c0.7,0.4,1.3,1,1.7,1.6c0.5,0.9,0.5,0.6,0.5,7v5.8h2.7v-5.7c0-6.3,0-6.2,0.5-7.1
			c0.6-1,1.5-1.7,2.6-2.1c1.1-0.4,2.2-0.4,3.3-0.1c1.4,0.5,2.5,1.6,3,3c0.1,0.4,0.1,0.9,0.2,6.2v5.8H39v-5.5c0-6,0-6.2-0.4-7.3
			c-0.3-0.9-0.9-1.8-1.6-2.5c-1-0.9-2.2-1.5-3.5-1.8c-1.1-0.2-2.3-0.3-3.4-0.1c-1.6,0.3-3.1,1.2-4.1,2.5l-0.4,0.5l-0.4-0.5
			c-0.9-1.2-2.2-2.1-3.7-2.5C20.4,25.8,19.3,25.7,18.3,25.8z"/>
		<path class="st0" d="M70,25.9c-3,0.4-5.5,2.6-6.3,5.5c-0.2,0.9-0.3,2.1-0.3,7v4.8h2.5v-5.4v-5.4l0.2-0.5c0.5-1.5,1.7-2.7,3.1-3.3
			c0.8-0.3,1.6-0.5,2.5-0.5c1.6-0.1,3.1,0.6,4.3,1.7c0.6,0.5,1,1.2,1.3,1.9l0.2,0.5v5.5v5.5H80v-5.5c0-5.3,0-5.5-0.2-6.1
			c-0.6-2.3-2.3-4.2-4.6-5.1c-1-0.4-2.2-0.7-3.3-0.6C71.3,25.7,70.6,25.8,70,25.9z"/>
		<path class="st0" d="M53.8,47.1v1.9h2.4v-3.9h-2.4V47.1z"/>
		<path class="st0" d="M77.5,45.3c0,0.1,0,3.4,0,7.4c0,8.2,0,7.8,0.6,8.9c0.4,0.9,1.2,1.6,2.1,1.9c1.1,0.4,2.3,0.7,3.5,0.7h0.4v-1.8
			l-0.7-0.1c-1.8-0.2-2.8-0.8-3.3-2.3c-0.1-0.3-0.1-0.7-0.2-3.5v-3.1h4.2v-2.1h-4.2v-6.1h-1.2C77.8,45.2,77.5,45.2,77.5,45.3z"/>
		<path class="st0" d="M20.1,47c-1.4,0.2-2.7,0.6-3.8,1.4c-0.9,0.6-1.7,1.3-2.4,2.1c-0.6,0.7-1,1.5-1.4,2.4
			c-0.4,1.2-0.4,1.4-0.4,8.6V68h2.4v-6.7l0.6,0.5c2.4,2,5.6,2.8,8.7,2c2.5-0.6,4.6-2.2,5.9-4.4c0.7-1.2,1.1-2.6,1-4
			c0.1-1.9-0.6-3.8-1.9-5.2C26.7,47.8,23.4,46.5,20.1,47z M23.1,49.3c1.2,0.3,2.3,0.9,3.2,1.8c0.7,0.6,1.2,1.4,1.6,2.3
			c0.3,0.8,0.4,1.6,0.4,2.5c0,1.3-0.5,2.5-1.2,3.5c-0.8,0.9-1.7,1.7-2.9,2.2c-0.9,0.4-1.8,0.5-2.8,0.5c-1,0.1-2.1-0.1-3-0.6
			c-0.6-0.2-1.1-0.6-1.5-1c-0.7-0.5-1.2-1.2-1.6-2c-0.5-0.9-0.7-1.9-0.6-2.8c-0.1-0.6,0-1.2,0.2-1.8c0.7-2.1,2.4-3.7,4.4-4.4
			C20.5,49.1,21.8,49,23.1,49.3L23.1,49.3z"/>
		<path class="st0" d="M41.3,47c-3.7,0.4-6.8,3.1-7.8,6.7c-0.2,1.1-0.2,2.2-0.1,3.3c0.3,1.8,1.3,3.5,2.7,4.7
			c1.8,1.6,4.1,2.5,6.5,2.4c1,0,1.9-0.1,2.9-0.4c2.7-0.8,4.8-2.8,5.9-5.3c0.9-2.4,0.6-5.1-0.8-7.2C49,48.9,46.7,47.4,44,47
			C43.1,47,42.2,46.9,41.3,47z M44.5,49.3c1.1,0.3,2.2,0.9,3,1.7c2,1.8,2.5,4.7,1.4,7.1c-0.8,1.5-2.1,2.8-3.7,3.4
			c-0.8,0.3-1.6,0.5-2.5,0.4c-1.8,0.1-3.5-0.6-4.8-1.8c-1.8-1.6-2.6-4.1-1.9-6.4c0.8-2.3,2.7-4.1,5.2-4.6
			C42.2,49.1,43.4,49.1,44.5,49.3z"/>
		<path class="st0" d="M66.3,47c-0.9,0.1-1.7,0.3-2.5,0.7c-2.1,0.9-3.7,2.7-4.2,4.9c-0.2,0.6-0.2,0.8-0.2,5.9v5.3h2.5v-5.3v-5.3
			l0.2-0.5c0.3-0.7,0.7-1.3,1.3-1.9c1.3-1.3,3.2-1.9,5.1-1.5c1.1,0.2,2.1,0.7,2.9,1.5c0.6,0.5,1.1,1.2,1.4,2l0.2,0.5v5.3v5.3h2.5
			v-4.7c0-2.7,0-5-0.1-5.5c-0.1-1.4-0.7-2.7-1.6-3.8C71.9,47.7,69.1,46.6,66.3,47z"/>
		<path class="st0" d="M91.1,47.1c-0.4,0.1-0.8,0.2-1.2,0.4c-0.5,0.2-1,0.5-1.4,0.9c-1,0.8-1.6,2-1.4,3.3c0,1.1,0.5,2.2,1.3,2.9
			c0.7,0.7,1.2,0.9,3.2,1.5c0.8,0.2,1.7,0.5,2,0.6c0.6,0.3,1,0.7,1.4,1.3c0.2,0.3,0.3,0.7,0.3,1.1c0.1,1.9-1.2,3-3.3,2.9
			c-0.8,0-1.5-0.4-2.1-1c-0.5-0.4-0.8-1-0.8-1.6v-0.5h-2.6v0.5c0.2,1.9,1.4,3.5,3.1,4.2c0.8,0.4,1.7,0.6,2.6,0.5
			c0.6,0.1,1.2,0,1.8-0.2c1.7-0.5,3.1-1.8,3.8-3.4c0.5-1.7,0.1-3.6-1.2-4.8c-0.8-0.7-1.4-1-3.6-1.7c-0.9-0.2-1.8-0.5-2.5-1.1
			c-0.5-0.4-0.7-1-0.7-1.5c0-0.3,0-0.7,0.2-1c0.3-0.5,0.7-0.9,1.3-1.1c0.4-0.2,0.7-0.2,1.1-0.2c0.4,0,0.8,0,1.2,0.2
			c0.9,0.4,1.4,1,1.4,1.7v0.4h2.6V51c0-1.7-1.7-3.5-3.8-3.9C92.7,46.9,91.9,46.9,91.1,47.1z"/>
		<path class="st0" d="M53.8,57.6v6.2h2.4V51.4h-2.4V57.6z"/>
		<path class="st0" d="M19.3,67.5c-0.1,0.2,0,0.3,0.4,0.3H20V71c0,2.9,0,3.2,0.1,3.3c0.1,0.1,0.2,0.1,0.2,0c0.1-0.1,0.1-0.4,0.1-3.3
			v-3.2h0.4c0.3,0,0.4,0,0.4-0.2v-0.2h-1C19.5,67.4,19.4,67.4,19.3,67.5z"/>
		<path class="st0" d="M22.4,67.6c-0.5,0.3-0.5,0.3-0.5,3.6c0,3,0,3.2,0.2,3.2c0.1,0,0.1-0.1,0.2-0.1c0.1-0.1,0.1-0.4,0.1-2.4v-2.3
			h1.3v2.4c0,2.2,0,2.4,0.1,2.5s0.2,0,0.2,0s0.1-0.6,0.1-3c0-3.2,0-3.2-0.5-3.5c-0.2-0.2-0.4-0.3-0.6-0.2
			C22.9,67.4,22.7,67.5,22.4,67.6z M23.5,68.1c0.1,0.1,0.2,0.2,0.2,0.5V69h-1.3v-0.4c0-0.5,0.2-0.7,0.6-0.7
			C23.2,67.9,23.4,67.9,23.5,68.1z"/>
		<path class="st0" d="M25.6,67.4c0,0,0,1.6,0,3.4c0,3,0,3.4,0.1,3.4c0.1,0.1,0.2,0.1,0.2,0c0.1-0.1,0.1-0.4,0.2-2.9v-2.8l0.2,0.4
			c0.2,0.3,0.2,0.4,0.4,0.4s0.2-0.1,0.4-0.4l0.2-0.4v2.8c0,2.5,0,2.8,0.1,2.9c0.1,0.1,0.2,0.1,0.2,0c0.1-0.1,0.1-0.4,0.1-3.5v-3.3
			h-0.2c-0.2,0-0.2,0-0.6,0.6s-0.4,0.6-0.4,0.5s-0.2-0.3-0.4-0.6C26,67.5,25.8,67.3,25.6,67.4z"/>
		<path class="st0" d="M31.4,67.5c0,0,0,1.6,0,3.4c0,3,0,3.4,0.1,3.4c0.1,0.1,0.2,0.1,0.2,0c0.1-0.1,0.1-0.3,0.1-2.5v-2.4h1.3v2.4
			c0,2.1,0,2.4,0.2,2.5c0.1,0.1,0.2,0.1,0.2,0c0.1-0.1,0.1-0.5,0.1-3.4c0-1.8,0-3.3,0-3.4c0-0.1-0.1-0.1-0.2-0.1
			c-0.2,0-0.3,0.1-0.3,0.9V69h-1.3v-0.7c0-0.3,0-0.5-0.1-0.8C31.7,67.4,31.5,67.4,31.4,67.5z"/>
		<path class="st0" d="M35.1,67.5c0,0.1,0,0.2,0,0.3c0,0.2,0.1,0.2,0.2,0.2s0.2-0.1,0.2-0.3s0-0.3-0.2-0.3
			C35.2,67.4,35.1,67.4,35.1,67.5z"/>
		<path class="st0" d="M36.5,67.5c-0.2,0.3,0,0.3,0.8,0.3c0.3,0,0.5,0,0.8,0c0,0,0,0.2,0,0.4s-0.5,1.6-0.9,3.1
			c-0.3,0.9-0.6,1.9-0.7,2.9c0.1,0.1,0.2,0.1,1,0.1c0.4,0,0.7,0,1.1-0.1c0.1,0,0.1-0.1,0.1-0.2s0-0.2-0.8-0.2H37l0.9-3.1
			c0.5-1.7,0.8-3.2,0.8-3.2s-0.2-0.1-1.1-0.1S36.6,67.4,36.5,67.5z"/>
		<path class="st0" d="M39.5,67.4c0,0,0,1.6,0,3.4c0,3,0,3.4,0.1,3.4c0.1,0.1,0.2,0.1,0.2,0c0.1-0.1,0.1-0.4,0.2-2.9v-2.8l0.2,0.4
			c0.3,0.5,0.5,0.5,0.8,0l0.2-0.4v2.8c0,2.5,0,2.8,0.2,2.9c0.1,0.1,0.2,0.1,0.2,0c0.1-0.1,0.1-0.5,0.1-3.4s0-3.3-0.1-3.4
			s-0.3,0-0.7,0.6c-0.1,0.2-0.2,0.4-0.4,0.5c-0.2-0.2-0.3-0.3-0.4-0.6C39.8,67.5,39.6,67.3,39.5,67.4z"/>
		<path class="st0" d="M43.7,67.6c-0.1,0.1-0.3,0.2-0.4,0.3c-0.2,0.2-0.2,0.3-0.2,3v2.8l0.2,0.2c0.4,0.5,1.1,0.6,1.6,0.2
			c0.4-0.3,0.5-0.4,0.5-2.3c0-1.6,0-1.7-0.1-1.8c-0.3-0.1-0.3,0-0.3,0.7c0,0.4,0,1.2,0,1.8c0,1-0.1,1-0.2,1.2
			c-0.2,0.2-0.6,0.2-0.9,0l-0.2-0.2v-4h0.8c0.3,0,0.6,0,0.9-0.1c0.1-0.2,0.1-0.4,0.1-0.6c0-0.3,0-0.6-0.2-0.8
			C45,67.5,44.2,67.2,43.7,67.6C43.7,67.6,43.7,67.6,43.7,67.6z M44.7,68.1c0.1,0.1,0.2,0.2,0.2,0.5v0.4h-0.7h-0.7v-0.3
			c0-0.4,0.1-0.6,0.4-0.7C44.2,67.7,44.5,67.8,44.7,68.1L44.7,68.1z"/>
		<path class="st0" d="M46.1,67.5c-0.1,0.2,0,0.3,0.4,0.3h0.3V71c0,2.9,0,3.2,0.2,3.3c0.1,0.1,0.2,0.1,0.2,0
			c0.1-0.1,0.1-0.4,0.1-3.3v-3.2h0.3c0.3,0,0.4,0,0.4-0.2v-0.2h-1C46.3,67.4,46.1,67.4,46.1,67.5z"/>
		<path class="st0" d="M50.8,67.5c-0.1,0.1-0.1,6.8,0,6.8c0.1,0,0.2,0,0.2,0c0.2,0,0.2-0.1,0.2-2.5v-2.4h0.4c0.2,0,0.5,0.1,0.6,0.3
			l0.2,0.2v2.2c0,1.9,0.1,2.2,0.2,2.2c0.1,0.1,0.2,0.1,0.2,0C53,74.2,53,74,53,72.1c0-2.2,0-2.3-0.4-2.7c-0.1-0.1-0.1-0.1,0.1-0.3
			c0.4-0.3,0.4-0.9,0.1-1.3c-0.1-0.1-0.1-0.1-0.2-0.1c-0.2-0.2-0.3-0.2-1-0.2C51.3,67.4,51.1,67.4,50.8,67.5z M52.3,68.1
			c0.2,0.2,0.2,0.5,0.1,0.7c0,0,0,0-0.1,0.1c-0.2,0.2-0.3,0.2-0.6,0.2h-0.5v-0.5c0-0.2,0-0.4,0.1-0.6c0.2,0,0.3,0,0.5,0
			C52,67.9,52.2,67.9,52.3,68.1z"/>
		<path class="st0" d="M54.8,67.6c-0.1,0.1-0.3,0.2-0.4,0.3c-0.2,0.2-0.2,0.3-0.2,2.8c0,1,0,1.9,0.1,2.8c0.2,0.6,0.9,0.9,1.5,0.7
			c0.1,0,0.2-0.1,0.3-0.2c0.4-0.3,0.4-0.4,0.4-2.3c0-1.6,0-1.7-0.1-1.8c-0.1-0.1-0.2-0.1-0.3,0C56,70.1,56,70.3,56,71.8v1.7
			l-0.2,0.2c-0.2,0.2-0.5,0.2-0.7,0.1c-0.3-0.2-0.3-0.2-0.3-2.3v-2h0.8c1,0,1,0,1-0.7c0-0.3,0-0.6-0.2-0.8
			C56,67.4,55.3,67.3,54.8,67.6z M55.8,68c0.1,0.1,0.2,0.2,0.2,0.5V69h-1.2v-0.4c0-0.5,0.2-0.7,0.6-0.7C55.5,67.9,55.7,67.9,55.8,68
			L55.8,68z"/>
		<path class="st0" d="M57.8,67.5c0,0.1,0,1.6,0,3.4c0,3.1,0,3.3,0.2,3.4s0.2,0,0.2,0c0.1-0.8,0.2-1.7,0.1-2.5c0-0.8,0-1.6,0.1-2.4
			c0.1,0,0.1-0.1,0.7,2.8c0.5,2.2,0.6,2.4,0.9,2.2c0.1-0.1,0-0.4-0.5-2.7c-0.3-1.4-0.6-2.6-0.6-2.7c0.1-0.2,0.3-0.5,0.5-0.7
			c0.5-0.5,0.6-0.6,0.4-0.8s-0.2,0-0.9,0.6l-0.6,0.6v-0.5c0-0.2,0-0.4-0.1-0.7C58.2,67.4,57.9,67.4,57.8,67.5z"/>
		<path class="st0" d="M60.8,67.5c0,0.1,0,1.6,0,3.4c-0.1,1.1,0,2.2,0.1,3.4c0.6,0.1,1.1,0.1,1.7,0c0.1,0,0.1-0.1,0.1-0.2
			s-0.1-0.2-0.7-0.2h-0.7v-3.1c0.1-1.1,0-2.2-0.1-3.2C61.1,67.4,60.9,67.4,60.8,67.5z"/>
		<path class="st0" d="M63.5,67.6c-0.1,0.1-0.3,0.2-0.4,0.3C63,68.1,63,68.2,63,71.2c0,2.8,0,3.1,0.1,3.1c0.1,0.1,0.2,0.1,0.2,0
			c0.1-0.1,0.1-0.4,0.1-2.5v-2.4h1.3v2.4c0,2.1,0,2.4,0.2,2.5c0.1,0.1,0.2,0.1,0.2,0c0.1-0.1,0.1-0.4,0.1-3.1c0-3,0-3-0.2-3.3
			C64.8,67.4,64.1,67.3,63.5,67.6z M64.6,68c0.1,0.1,0.2,0.2,0.2,0.5V69h-1.2v-0.4c0-0.5,0.2-0.7,0.6-0.7
			C64.3,67.9,64.4,67.9,64.6,68L64.6,68z"/>
		<path class="st0" d="M66.7,67.5c-0.1,1.1-0.2,2.3-0.1,3.4c0,2.9,0,3.3,0.1,3.4c0.1,0.1,0.2,0.1,0.2,0c0.1-0.1,0.1-0.4,0.2-2.9
			v-2.8l0.2,0.4c0.3,0.5,0.5,0.5,0.8,0c0.1-0.1,0.1-0.3,0.3-0.4c0,0.9,0,1.8,0,2.7c0,2.3,0,2.8,0.1,2.9c0.1,0.1,0.2,0.1,0.3,0.1h0.2
			v-3.4v-3.4h-0.2c-0.2,0-0.2,0.1-0.5,0.5c-0.1,0.2-0.2,0.4-0.4,0.6c-0.1,0.1-0.2-0.1-0.4-0.5C67,67.4,66.9,67.3,66.7,67.5z"/>
		<path class="st0" d="M72.9,67.6c-0.2,0.1-0.3,0.3-0.4,0.4c-0.2,0.3-0.2,0.3-0.2,3.2c0,3.1,0,3.2,0.4,3.1h0.2v-4.9h1.3v2.4
			c0,0.8,0,1.6,0.1,2.4c0.1,0,0.1,0,0.2,0c0.2,0,0.2-0.1,0.2-3.1s0-3.1-0.2-3.3C74.1,67.4,73.4,67.3,72.9,67.6z M73.9,68.1
			c0.1,0.1,0.2,0.3,0.2,0.5V69h-1.3v-0.3c0-0.3,0.1-0.6,0.3-0.7C73.4,67.8,73.7,67.9,73.9,68.1z"/>
		<path class="st0" d="M77.6,67.5c0,0,0,1.4,0,3v3l-0.2,0.2c-0.1,0.1-0.3,0.2-0.5,0.2c-0.5-0.1-0.5-0.1-0.5-2c0-1.6,0-1.7-0.2-1.8
			s-0.2-0.1-0.3,0s-0.1,0.4-0.1,1.8c0,1.7,0,1.8,0.2,2c0.3,0.5,1.1,0.7,1.6,0.4c0.2-0.1,0.3-0.3,0.4-0.4c0.2-0.3,0.2-0.3,0.2-3.2
			c0.1-1,0-2-0.1-3C77.9,67.4,77.7,67.4,77.6,67.5C77.6,67.5,77.6,67.5,77.6,67.5z"/>
		<path class="st0" d="M79.9,67.5c-0.2,0.1-0.3,0.2-0.4,0.4c-0.2,0.3-0.2,0.3-0.2,3.3c0,2.7,0,3,0.1,3.1c0.1,0.1,0.2,0.1,0.2,0
			c0.1-0.1,0.1-0.3,0.2-2.5v-2.4h1.3v2.4c0,2.1,0,2.4,0.2,2.5c0.1,0.1,0.2,0.1,0.2,0c0.1-0.1,0.1-0.4,0.1-3.1c0-3,0-3-0.2-3.3
			C81.1,67.5,80.5,67.3,79.9,67.5z M80.9,68.1c0.2,0.1,0.2,0.2,0.2,0.5V69h-1.3v-0.4c0-0.3,0-0.4,0.2-0.5
			C80.3,67.8,80.7,67.8,80.9,68.1L80.9,68.1z"/>
		<path class="st0" d="M83.1,67.5c-0.1,1.1-0.1,2.3-0.1,3.4c0,2.9,0,3.3,0.1,3.4c0.1,0.1,0.2,0.1,0.2,0c0.1-0.1,0.1-0.4,0.2-3.1v-3
			l0.6,0.6l0.6,0.6v2.3c0,2.1,0,2.4,0.1,2.5c0,0,0.1,0.1,0.2,0.1c0.2,0,0.2-0.2,0.2-3.5c0-3,0-3.4-0.1-3.4c-0.3-0.1-0.4,0.1-0.4,0.7
			v0.6l-0.7-0.7C83.4,67.4,83.2,67.3,83.1,67.5z"/>
		<path class="st0" d="M87.2,67.5c-0.4,0.2-0.6,0.6-0.6,1.2c0,0.2,0,0.4,0.1,0.6c0.3,0.1,0.6,0.1,0.9,0.1h0.8v4.1l-0.2,0.2
			c-0.3,0.2-0.6,0.2-0.9,0l-0.2-0.1v-1.9v-2h-0.4v2c0,1.9,0,2,0.2,2.2c0.3,0.3,0.7,0.5,1.2,0.5c0.4-0.1,0.8-0.4,0.9-0.8
			c0-0.1,0-1.2,0-2.3c0-2,0-2.1-0.1-2.2c-0.3-0.1-0.6-0.1-0.9-0.1h-0.8v-0.3c0-0.5,0.2-0.7,0.6-0.7c0.3,0,0.6,0.2,0.6,0.5
			c0,0,0,0,0,0c0.1,0.3,0.2,0.5,0.4,0.3s0-1-0.5-1.2C88,67.4,87.6,67.4,87.2,67.5z"/>
		<path class="st0" d="M90.3,67.5c-0.1,1.1-0.1,2.2-0.1,3.3c0,2.7,0,3.3,0.1,3.4s0.1,0.1,0.2,0s0.1-0.3,0.2-3.3c0-1.8,0-3.3,0-3.4
			S90.5,67.4,90.3,67.5z"/>
		<path class="st0" d="M35.1,68.5c0,0,0,1.3,0,2.9v2.9h0.2c0.3,0.1,0.4,0,0.4-2.9c0-1.5,0-2.8,0-2.8S35.2,68.4,35.1,68.5z"/>
	</g>
</g>
</svg>
